<svg width="64" height="64" viewBox="0 0 64 64" fill="none" xmlns="http://www.w3.org/2000/svg">
<path d="M27.71 29.3342C26.8814 29.3342 26.21 28.6628 26.21 27.8342V18.1243H23C22.4278 18.1243 21.9058 17.7986 21.6534 17.2854C21.4014 16.7717 21.4634 16.1594 21.8135 15.7068L30.8135 4.06665C31.3809 3.33227 32.6192 3.33227 33.1866 4.06665L42.1866 15.7068C42.5367 16.1594 42.5987 16.7717 42.3467 17.2854C42.0943 17.7986 41.5723 18.1243 41 18.1243H37.7901V21.9841C37.7901 22.8127 37.1187 23.4841 36.2901 23.4841C35.4615 23.4841 34.7901 22.8127 34.7901 21.9841V16.6243C34.7901 15.7957 35.4615 15.1243 36.2901 15.1243H37.9444L32 7.43628L26.0557 15.1243H27.71C28.5386 15.1243 29.21 15.7957 29.21 16.6243V27.8342C29.21 28.6628 28.5386 29.3342 27.71 29.3342Z" fill="#D80650"/>
<path d="M19.836 56.387H19.8174L7.1104 56.2317C6.64653 56.2258 6.21099 56.0056 5.9312 55.635C5.6519 55.2644 5.55962 54.7849 5.68169 54.3372L9.02446 42.0789C9.17485 41.5271 9.62602 41.1087 10.188 41.0003C10.75 40.8919 11.3238 41.1126 11.6685 41.5691L13.3091 43.7415C14.8838 42.7703 17.751 40.9104 19.605 39.1594C20.2071 38.5901 21.1573 38.6184 21.7251 39.22C22.294 39.822 22.2671 40.7713 21.6646 41.3401C18.752 44.0916 13.8785 46.9036 13.6724 47.0222C13.0162 47.3992 12.1831 47.2288 11.7286 46.6258L11.1153 45.8143L9.08646 53.2557L16.8008 53.3499L15.8736 52.118C15.6226 51.7845 15.5215 51.3616 15.5953 50.951C15.669 50.5403 15.9102 50.179 16.2613 49.9534L18.9488 48.2273C19.6465 47.7796 20.5738 47.9827 21.0215 48.679C21.4693 49.3758 21.2671 50.304 20.5699 50.7518L19.2422 51.6043L21.0342 53.9847C21.3785 54.4417 21.4327 55.0545 21.1744 55.5648C20.9185 56.0696 20.4009 56.387 19.836 56.387Z" fill="#D80650"/>
<path d="M44.164 56.387C43.5991 56.387 43.0815 56.0696 42.8256 55.5647C42.5673 55.0545 42.6215 54.4417 42.9658 53.9847L44.7578 51.6043L43.4301 50.7518C42.7328 50.304 42.5307 49.3758 42.9785 48.679C43.4262 47.9827 44.3539 47.7801 45.0512 48.2273L47.7387 49.9534C48.0898 50.179 48.331 50.5403 48.4047 50.951C48.4785 51.3616 48.3774 51.7845 48.1264 52.118L47.1992 53.3499L54.9135 53.2557L52.8847 45.8142L52.2714 46.6258C51.8159 47.2288 50.9829 47.3992 50.3276 47.0222C50.1215 46.9036 45.248 44.0916 42.3354 41.3401C41.7328 40.7713 41.706 39.822 42.2748 39.22C42.8432 38.6184 43.7924 38.5901 44.395 39.1594C46.249 40.9104 49.1161 42.7703 50.6909 43.7415L52.3315 41.5691C52.6762 41.1126 53.248 40.8909 53.8119 41.0003C54.374 41.1087 54.8251 41.5271 54.9755 42.0789L58.3183 54.3372C58.4404 54.7849 58.3481 55.2644 58.0688 55.635C57.789 56.0056 57.3534 56.2258 56.8896 56.2317L44.1825 56.387L44.164 56.387Z" fill="#D80650"/>
<path d="M16.4072 36.4943C16.0029 36.4943 15.6001 36.3317 15.3042 36.0114C14.0776 34.6813 12.6806 33.6403 11.7519 33.0158L10.0254 35.1007C9.66845 35.5319 9.10058 35.7272 8.5537 35.6105C8.00634 35.4923 7.5703 35.0792 7.42284 34.5387L3.55272 20.3488C3.4243 19.8781 3.53319 19.3742 3.84422 18.9982C4.15525 18.6222 4.62791 18.4245 5.11619 18.4586L18.8862 19.5285C19.4326 19.5709 19.9121 19.9078 20.1372 20.4074C20.3628 20.9069 20.2978 21.4894 19.9678 21.9269L18.2182 24.2487C20.31 25.7946 22.6709 27.9762 24.4458 30.0343C24.9868 30.6618 24.917 31.6085 24.2895 32.1495C23.6626 32.6901 22.7143 32.6207 22.1743 31.9933C20.1811 29.6823 17.4082 27.2174 15.2749 25.8595C14.9219 25.6349 14.6787 25.2731 14.604 24.861C14.5293 24.4493 14.6304 24.0255 14.8823 23.691L15.9248 22.3077L7.00781 21.6149L9.55713 30.9625L10.2783 30.0914C10.7383 29.5358 11.5273 29.3864 12.1597 29.7355C12.2793 29.8014 15.1206 31.3873 17.5093 33.9772C18.0708 34.5861 18.0327 35.5353 17.4238 36.0968C17.1353 36.3629 16.7705 36.4943 16.4072 36.4943Z" fill="#D80650"/>
<path d="M47.5928 36.4943C47.229 36.4943 46.8647 36.3629 46.5762 36.0968C45.9673 35.5353 45.9292 34.5861 46.4907 33.9772C48.8794 31.3874 51.7207 29.8014 51.8403 29.7355C52.4712 29.3864 53.2617 29.5363 53.7217 30.0915L54.4429 30.9625L56.9922 21.6149L48.0752 22.3078L49.1177 23.6911C49.3696 24.0255 49.4707 24.4494 49.396 24.861C49.3213 25.2731 49.0781 25.6349 48.7251 25.8595C46.5918 27.2174 43.8188 29.6823 41.8257 31.9933C41.2852 32.6207 40.3369 32.6906 39.7105 32.1496C39.083 31.6085 39.0132 30.6618 39.5542 30.0343C41.3291 27.9762 43.6899 25.7946 45.7817 24.2487L44.0322 21.9269C43.7022 21.4894 43.6372 20.9069 43.8628 20.4074C44.0879 19.9079 44.5674 19.5709 45.1138 19.5285L58.8838 18.4586C59.3745 18.4245 59.8447 18.6217 60.1558 18.9982C60.4668 19.3742 60.5757 19.8781 60.4473 20.3488L56.5772 34.5387C56.4297 35.0792 55.9937 35.4923 55.4463 35.6105C54.898 35.7272 54.3315 35.5319 53.9746 35.1007L52.2481 33.0158C51.3193 33.6403 49.9224 34.6813 48.6958 36.0114C48.4004 36.3317 47.9971 36.4943 47.5928 36.4943Z" fill="#D80650"/>
<path d="M24.0908 48.801C24.6601 49.2381 25 49.9573 25 50.7249V52.4842H30.4013C29.9282 42.7326 25.0008 38.1497 24.9487 38.1023C24.4077 37.614 24.2929 36.805 24.6811 36.1883C25.0693 35.5706 25.8442 35.3211 26.5161 35.596C30.2065 37.1057 33.7934 37.1057 37.4838 35.596C38.1591 35.3191 38.9389 35.5711 39.3252 36.1917C39.7119 36.8128 39.5937 37.6223 39.0459 38.1072C38.9989 38.15 34.0717 42.7326 33.5986 52.4841H39V50.7283C39 49.9548 39.3247 49.2459 39.8691 48.8313C43.1298 46.3479 45 42.5769 45 38.4841C45 34.9182 43.5849 31.5921 41.0156 29.1184C38.4472 26.6458 35.0629 25.3616 31.4951 25.4939C24.704 25.7517 19.0996 31.4929 19.0014 38.2923C18.9414 42.4422 20.7963 46.2722 24.0908 48.801Z" fill="#0A0A0B"/>
<path d="M29.814 39.574C30.5703 40.8503 31.355 42.4661 32 44.4338C32.645 42.4661 33.4297 40.8503 34.186 39.574C32.729 39.7693 31.271 39.7693 29.814 39.574Z" fill="#0A0A0B"/>
<path d="M25 55.4841V55.9841C25 58.4656 27.0185 60.4841 29.5 60.4841H34.5C36.9815 60.4841 39 58.4656 39 55.9841V55.4841H25Z" fill="#0A0A0B"/>
</svg>
