<svg width="64" height="64" viewBox="0 0 64 64" fill="none" xmlns="http://www.w3.org/2000/svg">
<path d="M36.9502 60.4988H27.0498C26.3037 60.4988 25.6709 59.95 25.5649 59.2117L24.7983 53.8718C23.9546 53.5818 23.1265 53.241 22.3213 52.8504L18.0205 56.0779C17.4238 56.5281 16.5869 56.4675 16.0596 55.9392L9.05957 48.9392C8.53125 48.4109 8.47217 47.575 8.92041 46.9783L12.1479 42.6775C11.7588 41.8738 11.4175 41.0457 11.1269 40.2L5.78711 39.4334C5.04834 39.3279 4.5 38.6951 4.5 37.949V28.0486C4.5 27.3025 5.04834 26.6697 5.78711 26.5642L11.1269 25.7976C11.4175 24.9519 11.7588 24.1228 12.1484 23.3191L8.91943 19.0085C8.47216 18.4109 8.53173 17.575 9.06005 17.0476L16.0601 10.0574C16.6465 9.47144 17.5962 9.47144 18.1816 10.0593C18.7671 10.6453 18.7661 11.5945 18.1802 12.1804L12.1006 18.2507L15.1108 22.2693C15.4614 22.737 15.5078 23.3669 15.23 23.8816C14.5977 25.0525 14.0859 26.2947 13.709 27.574C13.5429 28.1365 13.064 28.5505 12.4829 28.6335L7.49999 29.3484V36.6491L12.4829 37.364C13.064 37.447 13.543 37.8611 13.709 38.4236C14.0859 39.7029 14.5976 40.945 15.23 42.1159C15.5083 42.6316 15.4614 43.2614 15.1098 43.7292L12.1011 47.738L17.2607 52.8982L21.2695 49.8894C21.7383 49.5378 22.3677 49.4919 22.8818 49.7683C24.0576 50.4021 25.2998 50.9148 26.5742 51.2907C27.1372 51.4568 27.5513 51.9353 27.6348 52.5163L28.3501 57.4988H35.6499L36.3652 52.5163C36.4487 51.9353 36.8628 51.4568 37.4258 51.2907C38.7002 50.9148 39.9424 50.4021 41.1181 49.7683C41.6323 49.4919 42.2627 49.5378 42.7304 49.8894L46.7402 52.8982L51.8994 47.7468L48.8891 43.7282C48.5385 43.2605 48.4922 42.6306 48.77 42.1159C49.4023 40.945 49.914 39.7029 50.291 38.4236C50.457 37.8611 50.936 37.447 51.5171 37.364L56.5 36.6492V29.3484L51.5171 28.6335C50.936 28.5505 50.457 28.1365 50.291 27.574C49.9141 26.2947 49.4023 25.0525 48.77 23.8816C48.4917 23.366 48.5385 22.7361 48.8901 22.2683L51.8989 18.2595L46.7402 13.1003L42.9013 15.988C42.2402 16.4851 41.2998 16.3533 40.8013 15.6902C40.3032 15.0281 40.4365 14.0876 41.0986 13.5896L45.9785 9.91968C46.5747 9.47144 47.4121 9.52906 47.9404 10.0583L54.9404 17.0583C55.4687 17.5867 55.5278 18.4226 55.0796 19.0193L51.852 23.3201C52.2412 24.1238 52.5825 24.9519 52.873 25.7976L58.2129 26.5642C58.9516 26.6697 59.5 27.3025 59.5 28.0486V37.949C59.5 38.6951 58.9516 39.3279 58.2129 39.4334L52.873 40.2C52.5825 41.0457 52.2412 41.8748 51.8515 42.6785L55.0805 46.989C55.5278 47.5867 55.4682 48.4226 54.9399 48.95L47.9399 55.9402C47.4106 56.4666 46.5771 56.5271 45.9795 56.0779L41.6787 52.8504C40.8735 53.241 40.0454 53.5818 39.2016 53.8718L38.435 59.2117C38.3291 59.95 37.6963 60.4988 36.9502 60.4988Z" fill="#D80650"/>
<path d="M32 45.8737C24.9009 45.8737 19.125 40.0983 19.125 32.9987C19.125 31.862 19.2852 30.7067 19.6011 29.5651C19.8223 28.7672 20.6494 28.2975 21.4468 28.5202C22.2456 28.7409 22.7134 29.567 22.4927 30.3659C22.2485 31.2467 22.125 32.1325 22.125 32.9987C22.125 38.444 26.5547 42.8737 32 42.8737C37.4453 42.8737 41.875 38.444 41.875 32.9987C41.875 32.1325 41.7514 31.2467 41.5073 30.3659C41.2866 29.567 41.7544 28.7409 42.5532 28.5202C43.3506 28.2995 44.1777 28.7672 44.3989 29.5651C44.7148 30.7067 44.875 31.862 44.875 32.9987C44.875 40.0983 39.0991 45.8737 32 45.8737Z" fill="#D80650"/>
<path d="M24.6054 23.8152C25.1738 24.2927 25.5 24.989 25.5 25.7263V26.5242H30.5V20.636L25.9384 16.0691C25.3535 15.4831 25.354 14.5339 25.9399 13.948C26.5263 13.364 27.4751 13.3621 28.0615 13.9499L32 17.8923L35.9384 13.9499C36.5239 13.3621 37.4736 13.364 38.06 13.948C38.646 14.5339 38.6465 15.4832 38.0615 16.0691L33.5 20.636V26.5242H38.5V25.7263C38.5 24.9861 38.8149 24.2995 39.3642 23.8406C41.9926 21.6453 43.5 18.4265 43.5 15.0095C43.5 11.738 42.102 8.61108 39.665 6.42847C37.2334 4.25074 33.9638 3.21167 30.6943 3.57105C25.3437 4.16382 21.08 8.49 20.5566 13.8591C20.1865 17.6492 21.7002 21.3708 24.6054 23.8152Z" fill="#0A0A0B"/>
<path d="M25.5 29.5242V31.0281C25.5 33.5115 27.5185 35.531 30 35.531H34C36.4815 35.531 38.5 33.5115 38.5 31.0281V29.5242H25.5Z" fill="#0A0A0B"/>
</svg>
