<svg width="64" height="64" viewBox="0 0 64 64" fill="none" xmlns="http://www.w3.org/2000/svg">
<path d="M32 58.5H8C5.51855 58.5 3.5 56.4814 3.5 54V8C3.5 5.51855 5.51855 3.5 8 3.5H48C50.4814 3.5 52.5 5.51855 52.5 8V34.5898C52.5 35.418 51.8281 36.0898 51 36.0898C50.1719 36.0898 49.5 35.418 49.5 34.5898V8C49.5 7.17285 48.8271 6.5 48 6.5H8C7.17285 6.5 6.5 7.17285 6.5 8V54C6.5 54.8271 7.17285 55.5 8 55.5H32C32.8281 55.5 33.5 56.1719 33.5 57C33.5 57.8281 32.8281 58.5 32 58.5Z" fill="#D80650"/>
<path d="M30 36.5H12C11.1719 36.5 10.5 35.8281 10.5 35V12C10.5 11.1719 11.1719 10.5 12 10.5C12.8281 10.5 13.5 11.1719 13.5 12V33.5H30C30.8281 33.5 31.5 34.1719 31.5 35C31.5 35.8281 30.8281 36.5 30 36.5Z" fill="#D80650"/>
<path d="M11.999 29.5C11.6484 29.5 11.2968 29.3779 11.0126 29.1289C10.3886 28.583 10.3251 27.6357 10.871 27.0127L17.871 19.0127C18.1445 18.7002 18.5351 18.5146 18.9501 18.501C19.3554 18.4756 19.7675 18.6455 20.0605 18.9394L25.8886 24.7676L33.8388 15.0498C34.1074 14.7217 34.5019 14.5234 34.9248 14.5019C35.3593 14.4863 35.7607 14.6396 36.0605 14.9394L39.8759 18.7539L42.829 15.0625C43.3456 14.416 44.288 14.3095 44.9374 14.8291C45.5839 15.3467 45.6884 16.29 45.1708 16.9375L41.1708 21.9375C40.9042 22.2705 40.5087 22.4736 40.083 22.498C39.663 22.5156 39.2412 22.3623 38.9394 22.0605L35.1113 18.2324L27.1611 27.9502C26.8925 28.2783 26.498 28.4765 26.0751 28.498C25.6367 28.5097 25.2392 28.3594 24.9394 28.0605L19.0732 22.1943L13.1289 28.9873C12.832 29.3262 12.4169 29.5 11.999 29.5Z" fill="#D80650"/>
<path d="M28 43.5H12C11.1719 43.5 10.5 42.8281 10.5 42C10.5 41.1719 11.1719 40.5 12 40.5H28C28.8281 40.5 29.5 41.1719 29.5 42C29.5 42.8281 28.8281 43.5 28 43.5Z" fill="#D80650"/>
<path d="M21 49.5H12C11.1719 49.5 10.5 48.8281 10.5 48C10.5 47.1719 11.1719 46.5 12 46.5H21C21.8281 46.5 22.5 47.1719 22.5 48C22.5 48.8281 21.8281 49.5 21 49.5Z" fill="#D80650"/>
<path d="M46.3506 32.2002C38.5479 32.2002 32.2002 38.5479 32.2002 46.3506C32.2002 54.1523 38.5479 60.5 46.3506 60.5C54.1523 60.5 60.5 54.1523 60.5 46.3506C60.5 38.5479 54.1523 32.2002 46.3506 32.2002ZM53.0166 52.4814C52.7207 52.8027 52.3164 52.9658 51.9121 52.9658C51.5488 52.9658 51.1846 52.835 50.8965 52.5703L45.335 47.4551C45.0264 47.1709 44.8506 46.7705 44.8506 46.3506V38.9561C44.8506 38.1279 45.5225 37.4561 46.3506 37.4561C47.1787 37.4561 47.8506 38.1279 47.8506 38.9561V45.6924L52.9277 50.3613C53.5371 50.9229 53.5771 51.8711 53.0166 52.4814Z" fill="#0A0A0B"/>
</svg>
